<svg width="35" height="35" viewBox="0 0 35 35" fill="none" xmlns="http://www.w3.org/2000/svg">
<path d="M20.9523 23.0006L19.6722 21.7207L13.0961 28.2968L14.6638 29.8645L13.7125 30.8159L13.7134 30.8168L13.1613 31.3688C12.9407 31.5894 12.9407 31.9471 13.1613 32.1677C13.3758 32.3822 13.7195 32.3875 13.9412 32.1849L15.4628 30.6633L17.8604 33.0609L17.1101 33.8112C16.8895 34.0318 16.8895 34.3895 17.1101 34.6101C17.3308 34.8307 17.6884 34.8307 17.909 34.6101L18.6668 33.8523C19.3 34.3588 20.226 34.3193 20.8128 33.7326L20.9524 33.5929C23.8772 30.668 23.8772 25.9257 20.9523 23.0006Z" fill="url(#paint0_linear_40_182)"/>
<path d="M20.9523 23.0006L19.6722 21.7207L13.0961 28.2968L14.6638 29.8645L13.7125 30.8159L13.7134 30.8168L13.1613 31.3688C12.9407 31.5894 12.9407 31.9471 13.1613 32.1677C13.3758 32.3822 13.7195 32.3875 13.9412 32.1849L15.4628 30.6633L17.8604 33.0609L17.1101 33.8112C16.8895 34.0318 16.8895 34.3895 17.1101 34.6101C17.3308 34.8307 17.6884 34.8307 17.909 34.6101L18.6668 33.8523C19.3 34.3588 20.226 34.3193 20.8128 33.7326L20.9524 33.5929C23.8772 30.668 23.8772 25.9257 20.9523 23.0006Z" fill="url(#paint1_linear_40_182)"/>
<path d="M18.6666 33.8523C19.2998 34.3588 20.2258 34.3193 20.8126 33.7326L20.9522 33.5929C23.5048 31.0404 23.8295 27.104 21.9271 24.199L15.4627 30.6633L18.6666 33.8523Z" fill="url(#paint2_linear_40_182)"/>
<path d="M13.2791 15.3274L11.9992 14.0475C9.07423 11.1225 4.33188 11.1225 1.4069 14.0475L1.26727 14.1871C0.63751 14.8169 0.63751 15.838 1.26727 16.4678L1.45593 16.6565L1.14515 16.9672L1.14604 16.9681L0.593996 17.5202C0.373372 17.7408 0.373372 18.0985 0.593996 18.3191C0.808511 18.5336 1.15223 18.5389 1.37389 18.3363L2.25483 17.4554L4.65242 19.853L3.92185 20.5835C3.70122 20.8041 3.70122 21.1618 3.92185 21.3824C4.14247 21.603 4.50012 21.603 4.72074 21.3824L5.45132 20.6518L6.70316 21.9037L13.2791 15.3274Z" fill="url(#paint3_linear_40_182)"/>
<path d="M6.70302 21.9036L13.2791 15.3274L11.9992 14.0475C10.8111 12.8594 9.32325 12.154 7.7791 11.931L2.25476 17.4554L6.70302 21.9036Z" fill="url(#paint4_linear_40_182)"/>
<path d="M12.2993 28.2854C12.9953 28.9814 13.9693 29.247 14.9481 29.1431C17.2109 28.9027 21.3844 27.539 21.3844 27.539C29.391 24.1084 35.0001 16.1571 35.0001 6.895V2.56209C35.0001 1.14691 33.8529 -0.000244141 32.4378 -0.000244141H28.1049C18.8427 -0.000244141 10.8914 5.60881 7.46086 13.6154C7.46086 13.6154 6.09717 17.7889 5.8568 20.0516C5.75279 21.0304 6.01849 22.0045 6.71449 22.7005L12.2993 28.2854Z" fill="url(#paint5_linear_40_182)"/>
<path d="M35.0001 6.89495V2.56203C35.0001 1.85449 34.7133 1.21392 34.2496 0.750244L9.50684 25.493L12.2993 28.2854C12.9953 28.9814 13.9693 29.3216 14.9481 29.2176C26.2192 28.0202 35.0001 18.4837 35.0001 6.89495Z" fill="url(#paint6_linear_40_182)"/>
<path d="M32.5591 17.0832L25.2379 9.76196L16.6411 18.3587L24.3052 26.0228C27.8116 23.8635 30.6791 20.7676 32.5591 17.0832Z" fill="url(#paint7_linear_40_182)"/>
<path d="M7.46156 13.6157C6.59985 15.6269 6.0227 17.789 5.78233 20.0517C5.67831 21.0305 6.01852 22.0045 6.71452 22.7005L12.2994 28.2854C12.9954 28.9814 13.9694 29.3215 14.9482 29.2176C17.211 28.9772 19.3731 28.4 21.3842 27.5383L7.46156 13.6157Z" fill="url(#paint8_linear_40_182)"/>
<path d="M32.4378 -0.000244141H28.1049C25.4252 -0.000244141 22.8558 0.470064 20.4734 1.33125L33.6685 14.5264C34.5297 12.144 35 9.57454 35 6.895V2.56209C35 1.14691 33.8529 -0.000244141 32.4378 -0.000244141Z" fill="url(#paint9_linear_40_182)"/>
<path d="M20.9394 20.1392C24.2967 20.1392 27.0183 17.4177 27.0183 14.0604C27.0183 10.7032 24.2967 7.98157 20.9394 7.98157C17.5822 7.98157 14.8606 10.7032 14.8606 14.0604C14.8606 17.4177 17.5822 20.1392 20.9394 20.1392Z" fill="url(#paint10_linear_40_182)"/>
<path d="M20.9394 19.3876C23.8815 19.3876 26.2666 17.0026 26.2666 14.0605C26.2666 11.1183 23.8815 8.73328 20.9394 8.73328C17.9973 8.73328 15.6122 11.1183 15.6122 14.0605C15.6122 17.0026 17.9973 19.3876 20.9394 19.3876Z" fill="url(#paint11_linear_40_182)"/>
<path d="M20.9394 18.4933C23.3877 18.4933 25.3723 16.5086 25.3723 14.0604C25.3723 11.6121 23.3877 9.62744 20.9394 9.62744C18.4912 9.62744 16.5065 11.6121 16.5065 14.0604C16.5065 16.5086 18.4912 18.4933 20.9394 18.4933Z" fill="url(#paint12_linear_40_182)"/>
<path d="M20.9394 17.8488C23.0317 17.8488 24.7278 16.1526 24.7278 14.0604C24.7278 11.9681 23.0317 10.272 20.9394 10.272C18.8471 10.272 17.151 11.9681 17.151 14.0604C17.151 16.1526 18.8471 17.8488 20.9394 17.8488Z" fill="url(#paint13_linear_40_182)"/>
<path d="M20.9394 17.8488C23.0317 17.8488 24.7278 16.1526 24.7278 14.0604C24.7278 11.9681 23.0317 10.272 20.9394 10.272C18.8471 10.272 17.151 11.9681 17.151 14.0604C17.151 16.1526 18.8471 17.8488 20.9394 17.8488Z" fill="url(#paint14_linear_40_182)"/>
<path d="M20.9394 17.8488C23.0317 17.8488 24.7278 16.1526 24.7278 14.0604C24.7278 11.9681 23.0317 10.272 20.9394 10.272C18.8471 10.272 17.151 11.9681 17.151 14.0604C17.151 16.1526 18.8471 17.8488 20.9394 17.8488Z" fill="url(#paint15_linear_40_182)"/>
<path d="M21.384 27.538C19.373 28.4001 17.2107 28.9775 14.9478 29.2175C13.9695 29.3218 12.9949 28.9813 12.299 28.2853L9.50708 25.4935L14.4233 20.5773L21.384 27.538Z" fill="url(#paint16_linear_40_182)"/>
<path d="M35 2.56221V6.89498C35 9.57437 34.5299 12.1442 33.6685 14.5263L27.0714 7.92918L34.2497 0.750122C34.7132 1.21432 35 1.85511 35 2.56221Z" fill="url(#paint17_linear_40_182)"/>
<defs>
<linearGradient id="paint0_linear_40_182" x1="15.8127" y1="26.3401" x2="21.1969" y2="31.7243" gradientUnits="userSpaceOnUse">
<stop stop-color="#9BE69D"/>
<stop offset="1" stop-color="#0BB494"/>
</linearGradient>
<linearGradient id="paint1_linear_40_182" x1="18.4334" y1="30.9665" x2="17.7628" y2="28.4084" gradientUnits="userSpaceOnUse">
<stop stop-color="#01525A" stop-opacity="0"/>
<stop offset="1" stop-color="#01525A"/>
</linearGradient>
<linearGradient id="paint2_linear_40_182" x1="17.2823" y1="29.8167" x2="14.6745" y2="30.2637" gradientUnits="userSpaceOnUse">
<stop stop-color="#01525A" stop-opacity="0"/>
<stop offset="1" stop-color="#01525A"/>
</linearGradient>
<linearGradient id="paint3_linear_40_182" x1="3.24276" y1="13.1294" x2="8.24798" y2="18.1347" gradientUnits="userSpaceOnUse">
<stop stop-color="#9BE69D"/>
<stop offset="1" stop-color="#0BB494"/>
</linearGradient>
<linearGradient id="paint4_linear_40_182" x1="4.57508" y1="16.9173" x2="1.12198" y2="16.9173" gradientUnits="userSpaceOnUse">
<stop stop-color="#01525A" stop-opacity="0"/>
<stop offset="1" stop-color="#01525A"/>
</linearGradient>
<linearGradient id="paint5_linear_40_182" x1="18.6743" y1="9.91766" x2="25.5891" y2="16.8324" gradientUnits="userSpaceOnUse">
<stop stop-color="#DEECF1"/>
<stop offset="1" stop-color="#8EBAC5"/>
</linearGradient>
<linearGradient id="paint6_linear_40_182" x1="25.5665" y1="16.8099" x2="29.7451" y2="20.9884" gradientUnits="userSpaceOnUse">
<stop stop-color="#678D98" stop-opacity="0"/>
<stop offset="0.2265" stop-color="#638892" stop-opacity="0.227"/>
<stop offset="0.5216" stop-color="#597B82" stop-opacity="0.522"/>
<stop offset="0.8533" stop-color="#476567" stop-opacity="0.853"/>
<stop offset="1" stop-color="#3E5959"/>
</linearGradient>
<linearGradient id="paint7_linear_40_182" x1="26.1552" y1="19.2761" x2="19.5735" y2="12.6943" gradientUnits="userSpaceOnUse">
<stop stop-color="#678D98" stop-opacity="0"/>
<stop offset="0.2265" stop-color="#638892" stop-opacity="0.227"/>
<stop offset="0.5216" stop-color="#597B82" stop-opacity="0.522"/>
<stop offset="0.8533" stop-color="#476567" stop-opacity="0.853"/>
<stop offset="1" stop-color="#3E5959"/>
</linearGradient>
<linearGradient id="paint8_linear_40_182" x1="9.09624" y1="20.1664" x2="14.6052" y2="25.6753" gradientUnits="userSpaceOnUse">
<stop stop-color="#FFA1AE"/>
<stop offset="1" stop-color="#FF4565"/>
</linearGradient>
<linearGradient id="paint9_linear_40_182" x1="28.0151" y1="1.69442" x2="32.5013" y2="6.18053" gradientUnits="userSpaceOnUse">
<stop stop-color="#FFA1AE"/>
<stop offset="1" stop-color="#FF4565"/>
</linearGradient>
<linearGradient id="paint10_linear_40_182" x1="17.4872" y1="10.6081" x2="25.4563" y2="18.5772" gradientUnits="userSpaceOnUse">
<stop stop-color="#9BE69D"/>
<stop offset="1" stop-color="#0BB494"/>
</linearGradient>
<linearGradient id="paint11_linear_40_182" x1="20.9395" y1="9.4254" x2="20.9395" y2="19.892" gradientUnits="userSpaceOnUse">
<stop stop-color="#9BE69D"/>
<stop offset="1" stop-color="#0BB494"/>
</linearGradient>
<linearGradient id="paint12_linear_40_182" x1="23.9944" y1="17.1153" x2="19.3483" y2="12.4691" gradientUnits="userSpaceOnUse">
<stop stop-color="#9BE69D"/>
<stop offset="1" stop-color="#0BB494"/>
</linearGradient>
<linearGradient id="paint13_linear_40_182" x1="19.0767" y1="12.1976" x2="23.3886" y2="16.5095" gradientUnits="userSpaceOnUse">
<stop stop-color="#A6E7F0"/>
<stop offset="0.1713" stop-color="#90E2ED"/>
<stop offset="0.5295" stop-color="#56D7E7"/>
<stop offset="1" stop-color="#02C7DD"/>
</linearGradient>
<linearGradient id="paint14_linear_40_182" x1="19.3861" y1="13.8714" x2="16.6292" y2="13.5361" gradientUnits="userSpaceOnUse">
<stop stop-color="#0199B1" stop-opacity="0"/>
<stop offset="1" stop-color="#0199B1"/>
</linearGradient>
<linearGradient id="paint15_linear_40_182" x1="20.0943" y1="12.6214" x2="18.7159" y2="10.2743" gradientUnits="userSpaceOnUse">
<stop stop-color="#0199B1" stop-opacity="0"/>
<stop offset="1" stop-color="#0199B1"/>
</linearGradient>
<linearGradient id="paint16_linear_40_182" x1="14.4631" y1="24.1524" x2="16.301" y2="28.5733" gradientUnits="userSpaceOnUse">
<stop stop-color="#FD4755" stop-opacity="0"/>
<stop offset="0.2586" stop-color="#F74453" stop-opacity="0.259"/>
<stop offset="0.6211" stop-color="#E53B4C" stop-opacity="0.621"/>
<stop offset="1" stop-color="#CA2E43"/>
</linearGradient>
<linearGradient id="paint17_linear_40_182" x1="31.5805" y1="6.74193" x2="35.008" y2="8.03342" gradientUnits="userSpaceOnUse">
<stop stop-color="#FD4755" stop-opacity="0"/>
<stop offset="0.2586" stop-color="#F74453" stop-opacity="0.259"/>
<stop offset="0.6211" stop-color="#E53B4C" stop-opacity="0.621"/>
<stop offset="1" stop-color="#CA2E43"/>
</linearGradient>
</defs>
</svg>
