<svg width="41" height="38" viewBox="0 0 41 38" fill="none" xmlns="http://www.w3.org/2000/svg">
<path d="M39.9396 25.08L35.3717 22.5625L20.8604 30.7325C20.6704 30.8274 20.4567 30.875 20.2667 30.875C20.0767 30.875 19.8629 30.8274 19.6729 30.7325L5.16167 22.5625L0.59375 25.08C0.237421 25.2937 0 25.6975 0 26.125C0 26.5525 0.237421 26.9562 0.59375 27.17L19.6729 37.8575C19.8629 37.9524 20.0767 38 20.2667 38C20.4567 38 20.6704 37.9524 20.8604 37.8575L39.9396 27.17C40.2959 26.9562 40.5333 26.5525 40.5333 26.125C40.5333 25.6975 40.2959 25.2937 39.9396 25.08ZM0.59375 12.92L19.6729 23.6075C19.8629 23.7024 20.0767 23.75 20.2667 23.75C20.4567 23.75 20.6704 23.7024 20.8604 23.6075L39.9396 12.92C40.2959 12.7062 40.5333 12.3025 40.5333 11.875C40.5333 11.4475 40.2959 11.0437 39.9396 10.83L20.8604 0.1425C20.4805 -0.0475 20.0528 -0.0475 19.6729 0.1425L0.59375 10.83C0.237421 11.0437 0 11.4475 0 11.875C0 12.3025 0.237421 12.7062 0.59375 12.92ZM24.1855 10.3312C23.7105 9.87992 23.7105 9.11992 24.1855 8.66867C24.6367 8.19375 25.3967 8.19375 25.8479 8.66867L28.2229 11.0437C28.6979 11.4949 28.6979 12.2549 28.2229 12.7062L25.8479 15.0812C25.4207 15.5562 24.6129 15.5563 24.1855 15.0812C23.7105 14.6299 23.7105 13.8699 24.1855 13.4187L25.7053 11.875L24.1855 10.3312ZM18.5092 13.965L19.6967 9.215C19.8629 8.57367 20.5041 8.19375 21.1454 8.35984C21.7867 8.50234 22.1667 9.14367 22.0242 9.78492L20.8367 14.5349C20.6343 15.3107 19.7579 15.5752 19.3879 15.3899C18.7467 15.2475 18.3667 14.6062 18.5092 13.965ZM12.3105 11.0437L14.6855 8.66867C15.1367 8.19375 15.8967 8.19375 16.3479 8.66867C16.8229 9.11992 16.8229 9.87992 16.3479 10.3312L14.828 11.875L16.3478 13.4187C16.8228 13.8699 16.8228 14.6299 16.3478 15.0812C15.9207 15.5562 15.1128 15.5563 14.6854 15.0812L12.3104 12.7062C11.8354 12.2549 11.8354 11.4949 12.3105 11.0437Z" fill="url(#paint0_linear_40_143)"/>
<defs>
<linearGradient id="paint0_linear_40_143" x1="20.2667" y1="38" x2="20.2667" y2="0" gradientUnits="userSpaceOnUse">
<stop stop-color="#5558FF"/>
<stop offset="1" stop-color="#00C0FF"/>
</linearGradient>
</defs>
</svg>
