<svg width="41" height="34" viewBox="0 0 41 34" fill="none" xmlns="http://www.w3.org/2000/svg">
<path d="M40.1848 18.8973C40.1848 17.2355 39.1563 15.8093 37.7025 15.2219C38.0103 14.6588 38.1854 14.0133 38.1854 13.3275C38.1854 11.1429 36.408 9.36548 34.2193 9.36548L26.0437 9.39374V5.57807C26.0437 2.50229 23.5413 0 20.4656 0H18.428C17.7778 0 17.2507 0.527111 17.2507 1.17729V6.00126C17.2507 9.40692 14.48 12.1776 11.0744 12.1776C10.4242 12.1776 9.89709 12.7047 9.89709 13.3548V31.1222C9.89709 31.6384 10.2333 32.0943 10.7264 32.2469L16.2197 33.9465C16.3324 33.9813 16.4497 33.9991 16.5677 33.9991H33.6733C35.858 33.9991 37.6354 32.2217 37.6354 30.0369C37.6354 29.3077 37.4374 28.6239 37.0924 28.0364C38.4182 27.395 39.3349 26.036 39.3349 24.4671C39.3349 23.5814 39.0428 22.7627 38.5499 22.1022C39.5402 21.3812 40.1848 20.2132 40.1848 18.8973Z" fill="#F1D0A4"/>
<path d="M9.89709 31.122C9.89709 31.6382 10.2333 32.0942 10.7264 32.2467L16.2197 33.9464C16.3324 33.9812 16.4497 33.9989 16.5677 33.9989H33.6733C35.858 33.9989 37.6354 32.2215 37.6354 30.0367C37.6354 29.3076 37.4374 28.6238 37.0924 28.0363C38.4182 27.3949 39.3349 26.0359 39.3349 24.467C39.3349 23.5813 39.0428 22.7626 38.5499 22.1021H9.89709V31.122Z" fill="#F1BA87"/>
<path d="M11.0744 12.1776H1.17729C0.527111 12.1776 0 12.7047 0 13.3549V31.1222C0 31.7724 0.527111 32.2995 1.17729 32.2995H11.0744V12.1776Z" fill="#FF6680"/>
<path d="M0 22.1021V31.1221C0 31.7723 0.527111 32.2994 1.17729 32.2994H11.0744V22.1021H0Z" fill="#E62E6B"/>
</svg>
